<svg id="Camada_1" data-name="Camada 1" xmlns="http://www.w3.org/2000/svg" viewBox="0 0 178.88 134.88"><defs><style>.cls-1{fill:#f9c729;}.cls-2{fill:#fff;}.cls-3{fill:#515151;}.cls-4{fill:#606060;}.cls-5{fill:#b6b9ba;}.cls-6{fill:#c3c6c7;}</style></defs><path class="cls-1" d="M11.93,10.59H166.87A5.13,5.13,0,0,1,172,15.72V119.4a5.12,5.12,0,0,1-5.13,5.12H11.93A5.13,5.13,0,0,1,6.8,119.4V15.72A5.13,5.13,0,0,1,11.93,10.59Z"/><path class="cls-2" d="M160.61,70.4v34.18a12.46,12.46,0,0,0-11.4,8.55H29.59a12.46,12.46,0,0,0-11.4-8.55v-74A12.46,12.46,0,0,0,29.59,22H149.21a12.46,12.46,0,0,0,11.4,8.55Z"/><path class="cls-3" d="M143.52,96l-11.4-11.39L120.73,96V56.16h22.79Z"/><circle class="cls-4" cx="132.12" cy="56.16" r="17.09"/><circle class="cls-1" cx="132.12" cy="56.16" r="5.7"/><path class="cls-5" d="M41,39H92.25v11.4H41Z"/><path class="cls-6" d="M100.79,61.94H32.44a2.85,2.85,0,0,1,0-5.7h68.35a2.85,2.85,0,0,1,0,5.7Z"/><path class="cls-6" d="M100.79,73.33H32.44a2.85,2.85,0,1,1,0-5.69h68.35a2.85,2.85,0,1,1,0,5.69Z"/><path class="cls-6" d="M83.7,84.73H49.52a2.85,2.85,0,0,1,0-5.7H83.7a2.85,2.85,0,0,1,0,5.7Z"/><path class="cls-6" d="M60.92,96.12H49.52a2.85,2.85,0,0,1,0-5.7h11.4a2.85,2.85,0,0,1,0,5.7Z"/><path class="cls-6" d="M83.7,96.12H72.31a2.85,2.85,0,0,1,0-5.7H83.7a2.85,2.85,0,1,1,0,5.7Z"/><rect class="cls-1" x="123.6" y="47.42" width="17.48" height="17.48" rx="1.1"/><polygon class="cls-2" points="131.88 52.71 131.88 50.41 127.28 50.41 127.28 60.37 131.88 60.37 131.88 61.91 136.48 61.91 136.48 52.71 131.88 52.71"/><rect class="cls-1" x="130.73" y="55.39" width="2.3" height="2.3"/></svg>