<svg id="Camada_1" data-name="Camada 1" xmlns="http://www.w3.org/2000/svg" viewBox="0 0 130 130"><defs><style>.cls-1{fill:#f9c729;}.cls-2{fill:#606060;}</style></defs><path class="cls-1" d="M11.77,86.31,6.18,23.52H67.69L62.08,86.3l-25.19,7Z"/><path class="cls-2" d="M36.93,51.94H26.74L26,44.06H36.93v-7.7H17.62l.19,2.06L19.7,59.64H36.93Zm0,20h0l-8.58-2.32-.55-6.14H20l1.08,12.09L36.9,80h0Z"/><path class="cls-2" d="M11.9,6.46h3.91v3.87h3.58V6.46h3.92V18.17H19.39V14.25H15.81v3.92H11.9Zm16.55,3.88H25V6.46h10.8v3.88H32.37v7.83H28.45V10.34Zm9.08-3.88h4.08l2.51,4.11,2.5-4.11h4.09V18.17h-3.9V12.36l-2.69,4.17h-.07l-2.69-4.17v5.81H37.53V6.46Zm15.12,0h3.92V14.3h5.5v3.87H52.65Z"/><path class="cls-2" d="M36.9,51.94v7.7h9.49l-.9,10L36.9,72v8l15.79-4.38.12-1.3L54.62,54l.18-2.07H36.9Zm0-15.58v7.7H55.5l.16-1.73L56,38.42l.18-2.06Z"/><path class="cls-1" d="M118.29,118.79,93,125.6l-25.29-6.81L61.87,55.57h62.26Z"/><path class="cls-2" d="M78.65,46.28V42.51h5.49V38.4H74.53V50h9.61V46.28ZM94,42.51h3.84V38.4H88.24v4.11c1.29,1.29,2,1.91,3.82,3.77H88.24V50h9.61V46.28L94,42.51Zm13.62,0h3.84V38.4h-9.61v4.11c1.29,1.29,2,1.91,3.82,3.77h-3.82V50h9.61V46.28l-3.84-3.77Z"/><path class="cls-2" d="M93,76.5,74.88,84l.6,7.46L93,84l18.61-8,.78-7.64L93,76.5Z"/><path class="cls-2" d="M74.88,84l.6,7.46L93,84V76.5Z"/><path class="cls-2" d="M74.9,84l.6,7.46,26.86.09-.6,10L92.92,104l-8.49-2.14-.52-6.18H76l1,11.93,16,4.72,15.87-4.64L110.94,84Z"/><path class="cls-2" d="M73.25,68.42h39.12l-.78,7.64H74.19l-.94-7.64Z"/></svg>