<svg id="Camada_1" data-name="Camada 1" xmlns="http://www.w3.org/2000/svg" viewBox="0 0 130 130"><defs><style>.cls-1{fill:#f9c729;}.cls-2{fill:#606060;}</style></defs><path class="cls-1" d="M20.2,21H109v88.8H20.2Z"/><path class="cls-2" d="M101.73,88.58c-.65-4-3.29-7.45-11.11-10.63-2.72-1.25-5.75-2.14-6.66-4.2a4.61,4.61,0,0,1-.16-2.6c.59-2.35,3.4-3.09,5.63-2.41A6.17,6.17,0,0,1,93,72.09c3.83-2.48,3.82-2.47,6.5-4.17a16.12,16.12,0,0,0-2.15-2.87c-2.3-2.58-5.44-3.9-10.46-3.8l-2.62.34A11.86,11.86,0,0,0,78,65.3c-4.2,4.77-3,13.12,2.11,16.55,5,3.79,12.45,4.65,13.39,8.18.92,4.33-3.18,5.73-7.26,5.24-3-.63-4.67-2.16-6.48-4.93L73,94.23a15.11,15.11,0,0,0,3,4.11c6.43,6.52,22.53,6.2,25.41-3.67A12.11,12.11,0,0,0,101.73,88.58ZM68.47,61.77h-8.3c0,7.18,0,14.3,0,21.48,0,4.56.24,8.75-.5,10-1.22,2.53-4.37,2.21-5.8,1.72a7,7,0,0,1-3.06-3.18,4.68,4.68,0,0,0-.48-.76L43.54,95.2a13.34,13.34,0,0,0,4.9,5.6,16.06,16.06,0,0,0,11.86,1.46A10.48,10.48,0,0,0,67,97c1.89-3.48,1.48-7.7,1.46-12.37,0-7.61,0-15.23,0-22.87Z"/></svg>