<svg id="Camada_1" data-name="Camada 1" xmlns="http://www.w3.org/2000/svg" viewBox="0 0 130 130"><defs><style>.cls-1{fill:#f9c729;}.cls-2{fill:#606060;}</style></defs><path class="cls-1" d="M119,64.58c0-6.87-8.6-13.38-21.8-17.42,3-13.44,1.69-24.14-4.27-27.57a9.28,9.28,0,0,0-4.73-1.18v4.71a4.91,4.91,0,0,1,2.41.55c2.87,1.65,4.12,7.93,3.15,16-.24,2-.62,4.08-1.08,6.21a103.6,103.6,0,0,0-13.43-2.3A103.05,103.05,0,0,0,70.46,33c6.89-6.41,13.36-9.92,17.76-9.92V18.39c-5.82,0-13.43,4.14-21.12,11.33C59.4,22.57,51.79,18.47,46,18.47v4.72c4.37,0,10.86,3.49,17.76,9.85A101.24,101.24,0,0,0,55,43.59a100.11,100.11,0,0,0-13.44,2.32,61.14,61.14,0,0,1-1.1-6.13c-1-8.07.23-14.35,3.09-16A4.68,4.68,0,0,1,46,23.21V18.49a9.35,9.35,0,0,0-4.78,1.19c-5.94,3.42-7.27,14.1-4.21,27.5-13.15,4.06-21.71,10.55-21.71,17.4S23.88,78,37.08,82c-3,13.45-1.69,24.15,4.27,27.57a9.31,9.31,0,0,0,4.75,1.19c5.82,0,13.43-4.15,21.12-11.34,7.7,7.15,15.31,11.25,21.12,11.25a9.44,9.44,0,0,0,4.78-1.18c5.94-3.43,7.28-14.1,4.21-27.51,13.11-4,21.67-10.55,21.67-17.4ZM91.47,50.48c-.78,2.73-1.75,5.54-2.85,8.35-.87-1.69-1.78-3.38-2.77-5.07s-2-3.34-3-4.95c3,.44,5.89,1,8.66,1.67ZM81.79,73c-1.65,2.85-3.34,5.56-5.09,8.07-3.15.28-6.35.43-9.56.43s-6.38-.15-9.51-.41c-1.76-2.51-3.47-5.2-5.12-8s-3.07-5.58-4.4-8.41c1.31-2.84,2.79-5.67,4.38-8.44s3.34-5.56,5.09-8.08c3.15-.27,6.35-.42,9.56-.42s6.38.15,9.51.4q2.64,3.78,5.12,8t4.4,8.41c-1.33,2.83-2.79,5.67-4.38,8.44Zm6.83-2.75c1.14,2.83,2.11,5.66,2.92,8.41-2.77.68-5.69,1.25-8.71,1.69,1-1.62,2.07-3.29,3-5s1.88-3.4,2.75-5.09ZM67.18,92.81c-2-2-3.93-4.3-5.88-6.77,1.91.09,3.85.15,5.82.15s3.95,0,5.88-.15A83.77,83.77,0,0,1,67.18,92.81ZM51.45,80.35c-3-.44-5.9-1-8.66-1.67.78-2.72,1.75-5.54,2.85-8.35.87,1.69,1.77,3.39,2.77,5.08S50.42,78.75,51.45,80.35Zm15.63-44A88,88,0,0,1,73,43.12C71.05,43,69.11,43,67.14,43s-4,0-5.88.14A83.57,83.57,0,0,1,67.08,36.36ZM51.43,48.81c-1,1.63-2.07,3.3-3,5s-1.88,3.38-2.75,5.08c-1.14-2.84-2.12-5.67-2.92-8.42,2.77-.65,5.69-1.23,8.71-1.67ZM32.3,75.28C24.81,72.09,20,67.9,20,64.58s4.84-7.52,12.33-10.7c1.82-.78,3.8-1.48,5.86-2.13a101.3,101.3,0,0,0,4.75,12.87,100.07,100.07,0,0,0-4.69,12.82c-2.09-.66-4.08-1.38-5.92-2.16Zm11.37,30.21c-2.87-1.65-4.12-7.93-3.15-16,.24-2,.62-4.08,1.08-6.22A101.89,101.89,0,0,0,55,85.58a103.05,103.05,0,0,0,8.79,10.57c-6.89,6.4-13.36,9.91-17.76,9.91a5.05,5.05,0,0,1-2.39-.57ZM93.82,89.38c1,8.08-.23,14.36-3.09,16a4.68,4.68,0,0,1-2.43.55c-4.37,0-10.86-3.49-17.76-9.86a99.19,99.19,0,0,0,8.74-10.55,97,97,0,0,0,13.44-2.32A57.57,57.57,0,0,1,93.82,89.38ZM102,75.28c-1.82.78-3.81,1.48-5.86,2.14a101.42,101.42,0,0,0-4.75-12.88A100.5,100.5,0,0,0,96,51.73c2.09.65,4.08,1.37,5.94,2.15,7.49,3.2,12.33,7.38,12.33,10.7s-4.87,7.53-12.35,10.7Z"/><circle class="cls-2" cx="67.12" cy="64.58" r="9.66"/></svg>