<svg id="Camada_1" data-name="Camada 1" xmlns="http://www.w3.org/2000/svg" viewBox="0 0 130 130"><defs><style>.cls-1{font-size:64.17px;fill:#f9c729;font-family:MyriadPro-Regular, Myriad Pro;}.cls-2{fill:#606060;}</style></defs><text class="cls-1" transform="translate(13.77 86.71)">SQL</text><path class="cls-2" d="M77,63.59l0,0-.3.2,0,0-.3.16-.09,0-.37.17-.08,0-.36.15-.1,0-.45.15-.11,0-.4.12-.11,0-.51.12-.12,0-.46.1-.11,0-.56.1-.13,0-.5.07-.11,0-.58.07-.15,0-.55,0h-.08l-.61,0h-.15l-.59,0H69l-.62,0H66.8l-.63,0h0l-.59,0h-.15l-.61,0h-.08l-.55,0-.14,0-.59-.07H63.3l-.5-.08-.13,0-.56-.1L62,65l-.46-.1-.12,0-.51-.12-.11,0-.4-.11-.11,0-.45-.14-.1,0-.36-.14-.08,0-.37-.18-.09,0-.3-.17,0,0a2.23,2.23,0,0,1-.3-.2l0,0V68c0,1,3.58,2.46,9.42,2.46S77,69,77,68Z"/><path class="cls-2" d="M77,69.32l0,0a2.23,2.23,0,0,1-.3.2l0,0-.3.17-.09,0-.37.18-.08,0-.36.14-.1,0-.45.15-.11,0-.4.11-.11,0-.51.13-.12,0-.46.1-.11,0-.56.1-.13,0-.5.08h-.11l-.58.08H71l-.55.06h-.08l-.61,0h-.15l-.59,0H69l-.62,0H66.8l-.63,0h0l-.59,0h-.15l-.61,0h-.08l-.55-.06H64L63.41,71H63.3l-.5-.08-.13,0-.56-.1-.11,0-.46-.09-.12,0-.51-.12-.11,0-.4-.12-.11,0-.45-.15-.1,0L59.38,70l-.08,0-.37-.18-.09,0-.3-.17,0,0a2.23,2.23,0,0,1-.3-.2l0,0V73.7c0,1,3.58,2.46,9.42,2.46S77,74.73,77,73.7Z"/><path class="cls-2" d="M77,57.85l0,0a2.23,2.23,0,0,1-.3.2l0,0-.3.17-.09,0-.37.18-.08,0-.36.14-.1,0-.45.15-.11,0-.4.11-.11,0-.51.13-.12,0-.46.1-.11,0-.56.1-.13,0-.5.08h-.11l-.58.08H71l-.55.06h-.08l-.61.05h-.15l-.59,0H69l-.62,0H66.8l-.63,0h0l-.59,0h-.15l-.61,0h-.08l-.55,0-.14,0-.59-.07-.11,0-.5-.07-.13,0-.56-.1-.11,0-.46-.09-.12,0L60.91,59l-.11,0-.4-.12-.11,0-.45-.15-.1,0-.36-.14-.08,0-.37-.17-.09,0-.3-.16,0,0-.3-.2,0,0v4.38c0,1,3.58,2.45,9.42,2.45S77,63.26,77,62.24Z"/><path class="cls-2" d="M77,56.5c0-1.35-4.22-2.45-9.42-2.45s-9.42,1.1-9.42,2.45S62.38,59,67.58,59,77,57.86,77,56.5Z"/></svg>